{"title":"Pugazh 2016 TS Tamil Movies xviD-TvMovize.mp4","uid":13928098,"size":320767550,"categoryP":"video","categoryS":"movies","magnet":"?xt=urn:btih:515bf3291a6ed53c27bf336d66d6a5eb4c80092a&amp;dn=Pugazh+2016+TS+Tamil+Movies+xviD-TvMovize.mp4&amp;tr=udp%3A%2F%2Ftracker.leechers-paradise.org%3A6969&amp;tr=udp%3A%2F%2Fzer0day.ch%3A1337&amp;tr=udp%3A%2F%2Fopen.demonii.com%3A1337&amp;tr=udp%3A%2F%2Ftracker.coppersurfer.tk%3A6969&amp;tr=udp%3A%2F%2Fexodus.desync.com%3A6969","seeders":0,"leechers":1,"uploader":"TvMovize","files":1,"time":1458399153,"description":"Pugazh 2016 TS Tamil Movies xviD-TvMovize.mp4\r\n\r\n++ ScreenShots ++\r\n \nhttp://www.image2be.com/movie/Pugazh/1.html  \nhttp://www.image2be.com/movie/Pugazh/2.html  \nhttp://www.image2be.com/movie/Pugazh/3.html  \nhttp://www.image2be.com/movie/Pugazh/4.html  \nhttp://www.image2be.com/movie/Pugazh/5.html \r\n\r\n++ Info ++\r\n\r\n\r\nFormat : MPEG-4 \r\nFormat profile : Base Media \r\nCodec ID : isom (isom/iso2/avc1/mp41) \r\nFile size : 306 MiB \r\nDuration : 1h 30mn \r\nOverall bit rate mode : Variable \r\nOverall bit rate : 475 Kbps \r\nWriting application : Lavf57.3.100 \r\n\r\nVideo \r\nID : 1 \r\nFormat : AVC \r\nFormat/Info : Advanced Video Codec \r\nFormat profile :    \r\nFormat settings, CABAC : Yes \r\nFormat settings, ReFrames : 4 frames \r\nCodec ID : avc1 \r\nCodec ID/Info : Advanced Video Coding \r\nDuration : 1h 30mn \r\nBit rate : 340 Kbps \r\nWidth : 608 pixels \r\nHeight : 256 pixels \r\nDisplay aspect ratio : 2.40:1 \r\nFrame rate mode : Variable \r\nFrame rate : 24.971 fps \r\nMinimum frame rate : 8.333 fps \r\nMaximum frame rate : 25.000 fps \r\nColor space : YUV \r\nChroma subsampling : 4:2:0 \r\nBit depth : 8 bits \r\nScan type : Progressive \r\nBits/(Pixel*Frame) : 0.087 \r\nStream size : 219 MiB (72%) \r\nWriting library : x264 core 148 r168 e86f3a1 \r\nEncoding settings : cabac=1 / ref=2 / deblock=1:0:0 / analyse=0x1:0x111 / me=hex / subme=6 / psy=1 / psy_rd=1.00:0.00 / mixed_ref=1 / me_range=16 / chroma_me=1 / trellis=1 / 8x8dct=0 / cqm=0 / deadzone=21,11 / fast_pskip=1 / chroma_qp_offset=-2 / threads=8 / lookahead_threads=1 / sliced_threads=0 / nr=0 / decimate=1 / interlaced=0 / bluray_compat=0 / constrained_intra=0 / bframes=3 / b_pyramid=2 / b_adapt=1 / b_bias=0 / direct=1 / weightb=1 / open_gop=0 / weightp=1 / keyint=125 / keyint_min=12 / scenecut=40 / intra_refresh=0 / rc_lookahead=30 / rc=crf / mbtree=1 / crf=25.0 / qcomp=0.60 / qpmin=0 / qpmax=69 / qpstep=4 / vbv_maxrate=3500 / vbv_bufsize=7000 / crf_max=0.0 / nal_hrd=none / filler=0 / ip_ratio=1.40 / aq=1:1.00 \r\n\r\nAudio \r\nID : 2 \r\nFormat : AAC \r\nFormat/Info : Advanced Audio Codec \r\nFormat profile : LC \r\nCodec ID : 40 \r\nDuration : 1h 30mn \r\nBit rate mode : Variable \r\nBit rate : 128 Kbps \r\nMaximum bit rate : 3 500 Kbps \r\nChannel(s) : 2 channels \r\nChannel positions : Front: L R \r\nSampling rate : 44.1 KHz \r\nFrame rate : 43.066 fps (1024 spf) \r\nCompression mode : Lossy \r\nStream size : 82.8 MiB (27%) \r\nDefault : Yes \r\nAlternate group : 1","torrent":{"xt":"urn:btih:515bf3291a6ed53c27bf336d66d6a5eb4c80092a","amp;dn":"Pugazh+2016+TS+Tamil+Movies+xviD-TvMovize.mp4","amp;tr":["udp%3A%2F%2Ftracker.leechers-paradise.org%3A6969","udp%3A%2F%2Fzer0day.ch%3A1337","udp%3A%2F%2Fopen.demonii.com%3A1337","udp%3A%2F%2Ftracker.coppersurfer.tk%3A6969","udp%3A%2F%2Fexodus.desync.com%3A6969"],"infoHash":"515bf3291a6ed53c27bf336d66d6a5eb4c80092a","infoHashBuffer":{"type":"Buffer","data":[81,91,243,41,26,110,213,60,39,191,51,109,102,214,165,235,76,128,9,42]},"announce":[],"urlList":[]}}